<?xml version="1.0" encoding="utf-8"?>
<!-- Generator: Adobe Illustrator 16.0.0, SVG Export Plug-In . SVG Version: 6.00 Build 0)  -->
<!DOCTYPE svg PUBLIC "-//W3C//DTD SVG 1.1//EN" "http://www.w3.org/Graphics/SVG/1.1/DTD/svg11.dtd">
<svg version="1.1" id="Laag_1" xmlns="http://www.w3.org/2000/svg" xmlns:xlink="http://www.w3.org/1999/xlink" x="0px" y="0px"
	 width="141.732px" height="118.701px" viewBox="0 0 141.732 118.701" enable-background="new 0 0 141.732 118.701"
	 xml:space="preserve">
<rect x="14.174" y="15.508" fill="#CA005D" width="113.385" height="56.693"/>
<path fill="#01689B" d="M21.325,85.384h0.494l0.046,0.329c0.135,0.856,0.524,1.11,1.515,1.11c1.019,0,1.83-0.6,1.83-1.544
	c0-0.63-0.255-1.096-1.276-2.071l-0.99-0.944c-0.689-0.659-0.914-1.154-0.914-1.891c0-1.394,1.244-2.594,2.94-2.594
	c0.854,0,1.455,0.12,1.934,0.36l-0.18,1.875H26.29l-0.03-0.271c-0.09-0.78-0.526-1.139-1.425-1.139c-1.05,0-1.651,0.63-1.651,1.469
	c0,0.54,0.18,0.855,0.901,1.5l0.989,0.885c1.065,0.946,1.396,1.545,1.396,2.356c0,1.648-1.576,2.834-3.255,2.834
	c-0.781,0-1.531-0.119-2.071-0.329L21.325,85.384z"/>
<path fill="#01689B" d="M28.42,82.145l0.195-0.961c-0.33,0-0.525-0.016-0.84-0.046v-0.193c0.48-0.675,1.23-1.335,2.025-1.8h0.224
	l-0.254,1.229h0.435c0.42,0,0.75-0.03,1.154-0.104c0,0.645-0.359,0.93-1.304,0.93h-0.42l-0.255,1.559
	c-0.12,0.722-0.3,1.965-0.3,2.566c0,0.989,0.495,1.424,1.154,1.424c0.241,0,0.391-0.03,0.616-0.104v0.271
	c-0.135,0.359-0.675,0.719-1.38,0.719c-0.99,0-1.515-0.66-1.515-1.844C27.955,84.859,28.18,83.298,28.42,82.145"/>
<path fill="#01689B" d="M31.553,85.023c0-3.09,1.771-4.875,3.811-4.875c0.479,0,1.17,0.105,1.664,0.239l-0.524,2.625
	c-0.18,0.781-0.331,2.175-0.345,2.821c0,0.96,0.194,1.139,0.72,1.214v0.316c-0.39,0.135-0.871,0.225-1.335,0.225
	c-0.241,0-0.436-0.045-0.63-0.106l0.344-2.233h-0.014c-0.585,1.484-1.53,2.415-2.325,2.415
	C32.214,87.664,31.553,86.749,31.553,85.023 M35.319,83.569l0.42-2.49c-0.21-0.061-0.556-0.09-0.78-0.09
	c-1.215,0-2.25,1.273-2.25,3.824c0,1.275,0.389,1.815,0.75,1.815C34.104,86.629,34.973,85.624,35.319,83.569"/>
<path fill="#01689B" d="M38.919,80.989l-0.915-0.285v-0.285c0.48-0.18,0.931-0.255,1.485-0.255c0.196,0,0.406,0.029,0.616,0.104
	l-0.481,2.295h0.016c0.689-1.529,1.679-2.43,2.699-2.43c0.66,0,1.185,0.465,1.185,1.379c0,0.481-0.135,1.246-0.225,1.891l-0.27,1.62
	c-0.045,0.346-0.12,0.931-0.12,1.244c0,0.495,0.24,0.691,0.705,0.781v0.254c-0.344,0.18-0.735,0.286-1.2,0.286
	c-0.465,0-0.735-0.255-0.735-0.691c0-0.375,0.105-1.108,0.18-1.59l0.286-1.724c0.074-0.465,0.149-1.111,0.149-1.516
	c0-0.675-0.3-0.899-0.66-0.899c-0.84,0-2.04,1.62-2.1,3.75l-0.09,2.535h-1.275L38.919,80.989z"/>
<path fill="#01689B" d="M44.768,85.024c0-3.017,1.726-4.875,3.736-4.875c0.179,0,0.404,0.014,0.569,0.029l0.436-2.699l-0.991-0.285
	v-0.286c0.465-0.165,0.946-0.24,1.59-0.24c0.255,0,0.495,0.031,0.691,0.091l-1.095,6.21c-0.106,0.63-0.33,2.295-0.33,2.864
	c0,0.976,0.21,1.141,0.72,1.215v0.316c-0.465,0.149-0.84,0.224-1.335,0.224c-0.255,0-0.451-0.045-0.63-0.104l0.375-2.265h-0.016
	c-0.555,1.396-1.5,2.444-2.354,2.444C45.459,87.663,44.768,86.779,44.768,85.024 M48.534,83.554l0.42-2.489
	c-0.195-0.045-0.481-0.075-0.721-0.075c-1.245,0-2.309,1.169-2.309,3.825c0,1.244,0.36,1.813,0.75,1.813
	C47.273,86.628,48.219,85.654,48.534,83.554"/>
<path fill="#01689B" d="M51.188,85.023c0-3.09,1.771-4.875,3.811-4.875c0.479,0,1.17,0.105,1.664,0.239l-0.524,2.625
	c-0.18,0.781-0.331,2.175-0.345,2.821c0,0.96,0.194,1.139,0.72,1.214v0.316c-0.39,0.135-0.871,0.225-1.335,0.225
	c-0.241,0-0.436-0.045-0.63-0.106l0.344-2.233h-0.014c-0.585,1.484-1.53,2.415-2.325,2.415
	C51.849,87.664,51.188,86.749,51.188,85.023 M54.954,83.569l0.42-2.49c-0.21-0.061-0.556-0.09-0.78-0.09
	c-1.215,0-2.25,1.273-2.25,3.824c0,1.275,0.389,1.815,0.75,1.815C53.738,86.629,54.608,85.624,54.954,83.569"/>
<path fill="#01689B" d="M58.539,80.989l-0.915-0.285v-0.285c0.48-0.18,0.93-0.255,1.455-0.255c0.195,0,0.435,0.029,0.63,0.104
	l-0.45,2.175h0.015l0.795-1.319c0.39-0.646,0.795-0.946,1.26-0.946c0.33,0,0.495,0.21,0.495,0.556c0,0.24-0.06,0.54-0.165,0.779
	c-0.15-0.045-0.301-0.059-0.465-0.059c-0.945,0-1.89,1.035-2.025,3.809l-0.12,2.191h-1.245L58.539,80.989z"/>
<path fill="#01689B" d="M61.883,85.024c0-3.017,1.726-4.875,3.736-4.875c0.179,0,0.404,0.014,0.569,0.029l0.436-2.699l-0.991-0.285
	v-0.286c0.465-0.165,0.946-0.24,1.59-0.24c0.255,0,0.495,0.031,0.691,0.091l-1.095,6.21c-0.106,0.63-0.33,2.295-0.33,2.864
	c0,0.976,0.21,1.141,0.72,1.215v0.316c-0.465,0.149-0.84,0.224-1.335,0.224c-0.255,0-0.451-0.045-0.63-0.104l0.375-2.265h-0.016
	c-0.555,1.396-1.5,2.444-2.354,2.444C62.574,87.663,61.883,86.779,61.883,85.024 M65.649,83.554l0.42-2.489
	c-0.195-0.045-0.481-0.075-0.721-0.075c-1.245,0-2.309,1.169-2.309,3.825c0,1.244,0.36,1.813,0.75,1.813
	C64.388,86.628,65.334,85.654,65.649,83.554"/>
<path fill="#01689B" d="M70.523,87.169c0.285-0.135,0.54-0.39,0.585-0.81l0.915-7.74l-0.81-0.24v-0.331
	c0.869-0.148,1.92-0.239,2.954-0.239c1.785,0,2.775,0.766,2.775,2.011c0,1.305-0.945,2.354-2.325,2.653v0.017
	c1.245,0,2.22,0.854,2.22,1.995c0,1.89-1.68,3.104-4.079,3.104c-0.99,0-1.62-0.03-2.235-0.165V87.169z M73.193,86.779
	c1.335,0,2.325-0.842,2.325-2.07c0-1.156-0.75-1.786-2.806-1.786l-0.479,3.795C72.548,86.763,72.878,86.779,73.193,86.779
	 M75.623,79.984c0-0.915-0.705-1.41-1.694-1.41c-0.271,0-0.436,0-0.721,0.029l-0.435,3.631
	C74.528,82.234,75.623,81.364,75.623,79.984"/>
<path fill="#01689B" d="M78.383,85.114l0.346-1.771c0.104-0.509,0.225-1.349,0.225-1.814c0-0.494-0.255-0.734-0.69-0.84v-0.255
	c0.346-0.165,0.721-0.27,1.186-0.27c0.479,0,0.734,0.255,0.734,0.689c0,0.511-0.165,1.471-0.314,2.324l-0.33,1.665
	c-0.075,0.331-0.135,0.826-0.135,1.125c0,0.42,0.21,0.646,0.524,0.646c0.705,0,1.95-1.262,2.13-3.54l0.165-2.596
	c0.375-0.165,0.885-0.285,1.351-0.285l-0.42,2.341c-0.195,1.019-0.375,2.385-0.375,3.284c0,0.989,0.18,1.154,0.689,1.23v0.315
	c-0.435,0.135-0.885,0.225-1.35,0.225c-0.24,0-0.436-0.031-0.615-0.106l0.405-2.055h-0.016c-0.585,1.036-1.649,2.191-2.52,2.191
	c-0.66,0-1.155-0.54-1.155-1.38C78.218,85.893,78.323,85.428,78.383,85.114"/>
<path fill="#01689B" d="M84.249,86.163c0.42,0.405,0.915,0.631,1.47,0.631c0.705,0,1.275-0.405,1.275-1.035
	c0-0.495-0.195-0.825-0.931-1.485l-0.524-0.479c-0.69-0.631-0.886-1.035-0.886-1.695c0-0.99,0.945-1.98,2.324-1.98
	c1.096,0,1.636,0.33,1.636,0.811c0,0.27-0.104,0.585-0.27,0.78c-0.436-0.45-1.065-0.734-1.635-0.734
	c-0.66,0-1.005,0.359-1.005,0.839c0,0.436,0.18,0.69,0.93,1.365l0.57,0.51c0.72,0.646,0.96,1.079,0.96,1.74
	c0,1.185-1.2,2.219-2.775,2.219c-0.945,0-1.365-0.299-1.365-0.854C84.023,86.522,84.114,86.344,84.249,86.163"/>
<path fill="#01689B" d="M89.679,84.919l0.479-3.045l0.075-0.885l-0.9-0.285v-0.285c0.48-0.18,0.96-0.255,1.5-0.255
	c0.271,0,0.48,0.014,0.676,0.09l-0.676,4.41c-0.06,0.45-0.119,1.215-0.119,1.604c0,0.495,0.18,0.722,0.6,0.856v0.255
	c-0.315,0.134-0.675,0.21-1.125,0.21c-0.48,0-0.72-0.255-0.72-0.691C89.469,86.478,89.604,85.518,89.679,84.919 M90.398,77.989
	c0-0.495,0.39-0.931,0.84-0.931c0.389,0,0.69,0.3,0.69,0.72c0,0.511-0.405,0.931-0.84,0.931
	C90.684,78.709,90.398,78.438,90.398,77.989"/>
<path fill="#01689B" d="M93.518,80.989l-0.915-0.285v-0.285c0.48-0.18,0.931-0.255,1.485-0.255c0.195,0,0.405,0.029,0.615,0.104
	l-0.48,2.295h0.016c0.689-1.529,1.68-2.43,2.699-2.43c0.66,0,1.186,0.465,1.186,1.379c0,0.481-0.136,1.246-0.226,1.891l-0.27,1.62
	c-0.045,0.346-0.12,0.931-0.12,1.244c0,0.495,0.24,0.691,0.705,0.781v0.254c-0.345,0.18-0.735,0.286-1.2,0.286
	s-0.735-0.255-0.735-0.691c0-0.375,0.105-1.108,0.181-1.59l0.285-1.724c0.074-0.465,0.149-1.111,0.149-1.516
	c0-0.675-0.3-0.899-0.66-0.899c-0.84,0-2.04,1.62-2.1,3.75l-0.09,2.535h-1.275L93.518,80.989z"/>
<path fill="#01689B" d="M102.533,80.104c1.035,0,1.605,0.524,1.605,1.544c0,1.771-1.801,2.85-3.585,2.85
	c0,1.815,0.479,2.25,1.35,2.25c0.54,0,1.32-0.314,1.635-0.75c0.061,0.061,0.15,0.195,0.15,0.36c0,0.72-0.96,1.32-2.175,1.32
	c-1.261,0-2.13-0.825-2.13-2.61C99.384,81.693,101.094,80.104,102.533,80.104 M102.938,81.919c0-0.705-0.285-0.976-0.72-0.976
	c-0.66,0-1.605,1.14-1.605,2.865C101.979,83.809,102.938,83.073,102.938,81.919"/>
<path fill="#01689B" d="M104.423,86.163c0.42,0.405,0.915,0.631,1.47,0.631c0.705,0,1.275-0.405,1.275-1.035
	c0-0.495-0.195-0.825-0.931-1.485l-0.524-0.479c-0.69-0.631-0.886-1.035-0.886-1.695c0-0.99,0.945-1.98,2.325-1.98
	c1.095,0,1.635,0.33,1.635,0.811c0,0.27-0.104,0.585-0.27,0.78c-0.436-0.45-1.065-0.734-1.635-0.734
	c-0.66,0-1.005,0.359-1.005,0.839c0,0.436,0.18,0.69,0.93,1.365l0.57,0.51c0.72,0.646,0.96,1.079,0.96,1.74
	c0,1.185-1.2,2.219-2.775,2.219c-0.945,0-1.365-0.299-1.365-0.854C104.197,86.522,104.288,86.344,104.423,86.163"/>
<path fill="#01689B" d="M109.104,86.163c0.42,0.405,0.915,0.631,1.47,0.631c0.705,0,1.275-0.405,1.275-1.035
	c0-0.495-0.195-0.825-0.931-1.485l-0.524-0.479c-0.69-0.631-0.886-1.035-0.886-1.695c0-0.99,0.945-1.98,2.324-1.98
	c1.096,0,1.636,0.33,1.636,0.811c0,0.27-0.104,0.585-0.27,0.78c-0.436-0.45-1.065-0.734-1.635-0.734
	c-0.66,0-1.005,0.359-1.005,0.839c0,0.436,0.18,0.69,0.93,1.365l0.57,0.51c0.72,0.646,0.96,1.079,0.96,1.74
	c0,1.185-1.2,2.219-2.775,2.219c-0.945,0-1.365-0.299-1.365-0.854C108.878,86.522,108.969,86.344,109.104,86.163"/>
<path fill="#01689B" d="M21.34,102.669c0.27-0.105,0.54-0.346,0.57-0.66l0.915-7.891l-0.84-0.239v-0.33
	c0.825-0.15,1.74-0.239,3-0.239c1.83,0,2.82,0.824,2.82,2.085c0,1.545-1.125,2.759-2.745,3.134l1.65,2.73
	c0.42,0.689,0.975,1.08,1.65,1.215v0.314c-0.241,0.194-0.616,0.301-1.125,0.301c-0.63,0-1.125-0.301-1.666-1.32l-1.784-3.271v-0.284
	c1.289,0,2.685-1.021,2.685-2.596c0-0.96-0.72-1.574-1.68-1.574c-0.27,0-0.585,0.029-0.78,0.061l-0.96,8.204l0.825,0.24v0.3
	c-0.435,0.149-0.81,0.225-1.35,0.225c-0.495,0-0.87-0.06-1.185-0.149V102.669z"/>
<path fill="#01689B" d="M32.005,95.604c1.035,0,1.605,0.524,1.605,1.544c0,1.771-1.801,2.85-3.585,2.85c0,1.815,0.48,2.25,1.35,2.25
	c0.54,0,1.32-0.314,1.635-0.75c0.06,0.061,0.15,0.195,0.15,0.36c0,0.72-0.96,1.32-2.175,1.32c-1.26,0-2.13-0.825-2.13-2.61
	C28.855,97.193,30.565,95.604,32.005,95.604 M32.41,97.419c0-0.705-0.285-0.976-0.72-0.976c-0.66,0-1.605,1.14-1.605,2.865
	C31.45,99.309,32.41,98.573,32.41,97.419"/>
<path fill="#01689B" d="M35.185,104.964c-0.09,0.839,0.104,1.11,0.524,1.229v0.256c-0.389,0.136-0.72,0.181-1.17,0.181
	c-0.255,0-0.54-0.031-0.75-0.09l0.271-1.262l1.17-8.804l-0.915-0.285v-0.285c0.479-0.164,0.99-0.239,1.484-0.239
	c0.195,0,0.42,0.029,0.601,0.09l-0.391,2.31h0.016c0.509-1.47,1.5-2.475,2.264-2.475c0.72,0,1.38,0.81,1.38,2.49
	c0,3.33-1.755,4.995-3.269,4.995c-0.406,0-0.661-0.062-1.005-0.256L35.185,104.964z M36.384,102.324c1.051,0,2.13-1.245,2.13-3.75
	c0-1.471-0.359-1.95-0.75-1.95c-0.614,0-1.605,1.184-1.89,3.33l-0.344,2.279C35.829,102.308,36.114,102.324,36.384,102.324"/>
<path fill="#01689B" d="M43.975,95.588c1.214,0,2.084,0.795,2.084,2.505c0,3.182-1.74,5.056-3.225,5.056
	c-1.17,0-2.145-0.9-2.145-2.67C40.689,97.314,42.324,95.588,43.975,95.588 M44.829,98.395c0-1.336-0.495-1.937-1.154-1.937
	c-0.811,0-1.801,1.38-1.801,3.496c0,1.71,0.57,2.354,1.23,2.354C43.824,102.308,44.829,101.063,44.829,98.395"/>
<path fill="#01689B" d="M47.994,96.489l-0.915-0.285v-0.285c0.48-0.18,0.93-0.255,1.455-0.255c0.195,0,0.435,0.029,0.63,0.104
	l-0.45,2.175h0.015l0.795-1.319c0.39-0.646,0.795-0.946,1.26-0.946c0.33,0,0.495,0.21,0.495,0.556c0,0.24-0.06,0.54-0.165,0.779
	c-0.15-0.045-0.301-0.059-0.465-0.059c-0.945,0-1.89,1.035-2.025,3.809l-0.12,2.191h-1.245L47.994,96.489z"/>
<path fill="#01689B" d="M52.119,97.645l0.195-0.961c-0.33,0-0.525-0.016-0.84-0.046v-0.193c0.48-0.675,1.23-1.335,2.025-1.8h0.224
	l-0.254,1.229h0.435c0.42,0,0.75-0.03,1.154-0.104c0,0.645-0.359,0.93-1.304,0.93h-0.42l-0.255,1.559
	c-0.12,0.722-0.3,1.965-0.3,2.566c0,0.989,0.495,1.424,1.154,1.424c0.241,0,0.391-0.03,0.616-0.104v0.271
	c-0.135,0.359-0.675,0.719-1.38,0.719c-0.99,0-1.515-0.66-1.515-1.844C51.654,100.359,51.879,98.798,52.119,97.645"/>
<path fill="#01689B" d="M55.689,100.419l0.48-3.045l0.075-0.885l-0.9-0.285v-0.285c0.48-0.18,0.96-0.255,1.5-0.255
	c0.27,0,0.48,0.014,0.675,0.09l-0.675,4.41c-0.06,0.45-0.12,1.215-0.12,1.604c0,0.495,0.18,0.722,0.6,0.856v0.255
	c-0.315,0.134-0.675,0.21-1.125,0.21c-0.48,0-0.72-0.255-0.72-0.691C55.479,101.978,55.614,101.018,55.689,100.419 M56.409,93.489
	c0-0.495,0.39-0.931,0.84-0.931c0.389,0,0.69,0.3,0.69,0.72c0,0.511-0.405,0.931-0.841,0.931
	C56.694,94.209,56.409,93.938,56.409,93.489"/>
<path fill="#01689B" d="M59.528,96.489l-0.915-0.285v-0.285c0.48-0.18,0.931-0.255,1.485-0.255c0.196,0,0.406,0.029,0.616,0.104
	l-0.481,2.295h0.016c0.689-1.529,1.679-2.43,2.699-2.43c0.66,0,1.185,0.465,1.185,1.379c0,0.481-0.135,1.246-0.225,1.891l-0.27,1.62
	c-0.045,0.346-0.12,0.931-0.12,1.244c0,0.495,0.24,0.691,0.705,0.781v0.254c-0.344,0.18-0.735,0.286-1.2,0.286
	c-0.465,0-0.735-0.255-0.735-0.691c0-0.375,0.105-1.108,0.18-1.59l0.286-1.724c0.074-0.465,0.149-1.111,0.149-1.516
	c0-0.675-0.3-0.899-0.66-0.899c-0.84,0-2.04,1.62-2.1,3.75l-0.09,2.535h-1.275L59.528,96.489z"/>
<path fill="#01689B" d="M65.334,104.979c0,0.585,0.465,0.99,1.305,0.99c1.096,0,1.966-0.811,2.176-2.55l0.284-2.641h-0.015
	c-0.57,1.425-1.53,2.37-2.325,2.37c-0.659,0-1.364-0.854-1.364-2.67c0-2.88,1.694-4.829,3.734-4.829c0.585,0,1.23,0.104,1.74,0.239
	l-0.585,2.88c-0.135,0.72-0.226,2.25-0.226,3.03c0,3.42-1.68,4.875-3.659,4.875c-1.351,0-2.146-0.585-2.146-1.38
	c0-0.721,0.735-1.29,1.485-1.29C65.44,104.317,65.334,104.618,65.334,104.979 M69.174,98.964l0.345-2.399
	c-0.24-0.061-0.494-0.076-0.749-0.076c-1.156,0-2.221,1.246-2.221,3.826c0,1.289,0.391,1.814,0.766,1.814
	C67.945,102.129,68.874,101.123,69.174,98.964"/>
<path fill="#FFFFFF" d="M22.887,52.861h2.294l0.248,1.55c0.558,3.533,2.355,4.898,6.075,4.898c3.844,0,6.572-2.108,6.572-5.456
	c0-2.356-1.054-4.154-5.022-7.564l-4.277-3.72c-2.852-2.479-3.968-4.773-3.968-8.245c0-6.571,5.704-11.965,13.64-11.965
	c3.471,0,6.137,0.496,8.245,1.55L45.64,32.96h-2.108l-0.249-1.364c-0.619-3.41-2.293-4.836-5.641-4.836
	c-3.657,0-5.951,2.418-5.951,5.332c0,2.294,0.805,3.658,4.092,6.138l4.029,3.162c4.464,3.471,5.828,5.951,5.828,9.547
	c0,7.316-6.696,12.772-14.879,12.772c-3.286,0-6.324-0.558-8.804-1.55L22.887,52.861z"/>
<path fill="#FFFFFF" d="M51.965,61.23c1.363-0.558,2.355-1.797,2.603-3.906l3.472-30.937l-3.533-1.177v-1.674
	c4.153-0.682,8.927-0.992,14.135-0.992c8.865,0,12.647,3.224,12.647,8.741c0,5.456-4.34,9.796-10.292,10.663v0.062
	c5.828,0,9.733,3.349,9.733,8.37c0,7.75-6.261,13.02-17.979,13.02c-5.084,0-7.997-0.247-10.787-0.807V61.23z M64.922,59.371
	c4.464,0,7.936-3.286,7.936-8.06c0-4.712-2.79-7.068-9.547-7.068l-1.674,14.88C62.69,59.247,63.93,59.371,64.922,59.371
	 M73.415,32.216c0-3.906-2.355-5.766-5.642-5.766c-0.805,0-1.673,0-2.542,0.124L63.744,40.71
	C69.695,40.71,73.415,37.486,73.415,32.216"/>
<path fill="#FFFFFF" d="M86.932,61.293c1.302-0.496,2.354-1.735,2.542-3.287l3.533-31.618l-3.472-1.178v-1.674
	c3.596-0.62,8.308-1.054,14.012-1.054c8.555,0,12.833,3.72,12.833,9.3c0,6.509-3.596,10.973-9.857,12.461l6.138,10.787
	c1.487,2.666,3.968,4.712,6.634,5.704v1.24c-1.488,0.868-3.349,1.426-6.014,1.426c-3.411,0-6.014-1.735-7.874-5.704L99.331,44.74
	v-1.426c4.401,0,9.237-3.782,9.237-10.354c0-4.401-2.418-6.571-5.766-6.571c-0.868,0-1.736,0.062-2.542,0.186l-3.658,32.983
	l3.286,1.177v1.55c-2.231,0.683-4.216,1.055-6.882,1.055c-2.418,0-4.401-0.248-6.075-0.744V61.293z"/>
<rect fill="none" width="141.732" height="118.701"/>
<rect fill="none" width="141.732" height="118.701"/>
</svg>
