<?xml version="1.0" encoding="UTF-8"?>
<svg id="Laag_1" data-name="Laag 1" xmlns="http://www.w3.org/2000/svg" version="1.1" viewBox="0 0 284.9 56.7">
  <defs>
    <style>
      .cls-1 {
        fill: #ca005d;
      }

      .cls-1, .cls-2, .cls-3 {
        stroke-width: 0px;
      }

      .cls-2 {
        fill: #01689b;
      }

      .cls-3 {
        fill: #fff;
      }
    </style>
  </defs>
  <rect class="cls-1" width="113.4" height="56.7"/>
  <g>
    <path class="cls-2" d="M128.3,29.8h.5v.3c.2.9.6,1.1,1.6,1.1s1.8-.6,1.8-1.5-.3-1.1-1.3-2.1l-1-.9c-.7-.7-.9-1.2-.9-1.9,0-1.4,1.2-2.6,2.9-2.6s1.5.1,1.9.4l-.2,1.9h-.4v-.3c-.1-.8-.6-1.1-1.5-1.1s-1.7.6-1.7,1.5.2.9.9,1.5l1,.9c1.1.9,1.4,1.5,1.4,2.4,0,1.6-1.6,2.8-3.3,2.8s-1.5,0-2.1-.3l.2-1.9.2-.2h0Z"/>
    <path class="cls-2" d="M135.4,26.5l.2-1h-.8v-.2c.5-.7,1.2-1.3,2-1.8h.2l-.3,1.2h1.6c0,.6-.4.9-1.3.9h-.4l-.3,1.6c-.1.7-.3,2-.3,2.6,0,1,.5,1.4,1.2,1.4s.4,0,.6,0v.3c-.1.4-.7.7-1.4.7s-1.5-.7-1.5-1.8.2-2.5.5-3.6"/>
    <path class="cls-2" d="M138.6,29.4c0-3.1,1.8-4.9,3.8-4.9s1.2,0,1.7.2l-.5,2.6c-.2.8-.3,2.2-.3,2.8,0,1,.2,1.1.7,1.2v.3c-.4,0-.9.2-1.3.2h-.6l.3-2.2h0c-.6,1.5-1.5,2.4-2.3,2.4s-1.4-.9-1.4-2.6M142.3,27.9l.4-2.5h-.8c-1.2,0-2.2,1.3-2.2,3.8s.4,1.8.8,1.8c.6,0,1.5-1,1.9-3.1"/>
    <path class="cls-2" d="M145.9,25.4l-.9-.3v-.3c.5-.2.9-.3,1.5-.3h.6l-.5,2.3h0c.7-1.5,1.7-2.4,2.7-2.4s1.2.5,1.2,1.4-.1,1.2-.2,1.9l-.3,1.6c0,.3-.1.9-.1,1.2,0,.5.2.7.7.8v.3c-.3.2-.7.3-1.2.3s-.7-.3-.7-.7.1-1.1.2-1.6l.3-1.7c0-.5.1-1.1.1-1.5,0-.7-.3-.9-.7-.9-.8,0-2,1.6-2.1,3.8v2.5h-1.4l.7-6.5h0Z"/>
    <path class="cls-2" d="M151.8,29.4c0-3,1.7-4.9,3.7-4.9s.4,0,.6,0l.4-2.7-1-.3v-.3c.5-.2.9-.2,1.6-.2s.5,0,.7,0l-1.1,6.2c-.1.6-.3,2.3-.3,2.9,0,1,.2,1.1.7,1.2v.3c-.5,0-.8.2-1.3.2h-.6l.4-2.3h0c-.6,1.4-1.5,2.4-2.4,2.4s-1.4-.9-1.4-2.6M155.5,27.9l.4-2.5h-.7c-1.2,0-2.3,1.2-2.3,3.8s.4,1.8.8,1.8c.6,0,1.5-1,1.9-3.1"/>
    <path class="cls-2" d="M158.2,29.4c0-3.1,1.8-4.9,3.8-4.9s1.2,0,1.7.2l-.5,2.6c-.2.8-.3,2.2-.3,2.8,0,1,.2,1.1.7,1.2v.3c-.4,0-.9.2-1.3.2h-.6l.3-2.2h0c-.6,1.5-1.5,2.4-2.3,2.4s-1.4-.9-1.4-2.6M162,27.9l.4-2.5h-.8c-1.2,0-2.2,1.3-2.2,3.8s.4,1.8.8,1.8c.6,0,1.5-1,1.9-3.1"/>
    <path class="cls-2" d="M165.5,25.4l-.9-.3v-.3c.5-.2.9-.3,1.5-.3h.6l-.5,2.2h0l.8-1.3c.4-.6.8-.9,1.3-.9s.5.2.5.6,0,.5-.2.8h-.5c-.9,0-1.9,1-2,3.8v2.2h-1.4l.7-6.5h0Z"/>
    <path class="cls-2" d="M168.9,29.4c0-3,1.7-4.9,3.7-4.9s.4,0,.6,0l.4-2.7-1-.3v-.3c.5-.2.9-.2,1.6-.2s.5,0,.7,0l-1.1,6.2c-.1.6-.3,2.3-.3,2.9,0,1,.2,1.1.7,1.2v.3c-.5,0-.8.2-1.3.2h-.6l.4-2.3h0c-.6,1.4-1.5,2.4-2.4,2.4s-1.4-.9-1.4-2.6M172.6,27.9l.4-2.5h-.7c-1.2,0-2.3,1.2-2.3,3.8s.4,1.8.8,1.8c.6,0,1.5-1,1.9-3.1"/>
    <path class="cls-2" d="M177.5,31.5c.3,0,.5-.4.6-.8l.9-7.7-.8-.2v-.3c.9-.1,1.9-.2,3-.2,1.8,0,2.8.8,2.8,2s-.9,2.4-2.3,2.7h0c1.2,0,2.2.9,2.2,2,0,1.9-1.7,3.1-4.1,3.1s-1.6,0-2.2-.2v-.3h0ZM180.2,31.2c1.3,0,2.3-.8,2.3-2.1s-.8-1.8-2.8-1.8l-.5,3.8h1M182.6,24.4c0-.9-.7-1.4-1.7-1.4s-.4,0-.7,0l-.4,3.6c1.8,0,2.8-.9,2.8-2.2"/>
    <path class="cls-2" d="M185.4,29.5l.3-1.8c.1-.5.2-1.3.2-1.8s-.3-.7-.7-.8v-.3c.3-.2.7-.3,1.2-.3s.7.3.7.7-.2,1.5-.3,2.3l-.3,1.7c0,.3-.1.8-.1,1.1s.2.6.5.6c.7,0,1.9-1.3,2.1-3.5l.2-2.6c.4-.2.9-.3,1.4-.3l-.4,2.3c-.2,1-.4,2.4-.4,3.3s.2,1.2.7,1.2v.3c-.4,0-.9.2-1.3.2h-.6l.4-2.1h0c-.6,1-1.6,2.2-2.5,2.2s-1.2-.5-1.2-1.4.1-.8.2-1.1"/>
    <path class="cls-2" d="M191.2,30.5c.4.4.9.6,1.5.6s1.3-.4,1.3-1-.2-.8-.9-1.5l-.5-.5c-.7-.6-.9-1-.9-1.7,0-1,.9-2,2.3-2s1.6.3,1.6.8-.1.6-.3.8c-.4-.4-1.1-.7-1.6-.7s-1,.4-1,.8.2.7.9,1.4l.6.5c.7.6,1,1.1,1,1.7,0,1.2-1.2,2.2-2.8,2.2s-1.4-.3-1.4-.9,0-.5.2-.6"/>
    <path class="cls-2" d="M196.7,29.3l.5-3v-.9l-.8-.3v-.3c.5-.2,1-.3,1.5-.3h.7l-.7,4.4c0,.4-.1,1.2-.1,1.6s.2.7.6.9v.3c-.3,0-.7.2-1.1.2s-.7-.3-.7-.7.1-1.4.2-2M197.4,22.4c0-.5.4-.9.8-.9s.7.3.7.7-.4.9-.8.9-.7-.3-.7-.7"/>
    <path class="cls-2" d="M200.5,25.4l-.9-.3v-.3c.5-.2.9-.3,1.5-.3h.6l-.5,2.3h0c.7-1.5,1.7-2.4,2.7-2.4s1.2.5,1.2,1.4-.1,1.2-.2,1.9l-.3,1.6c0,.3-.1.9-.1,1.2,0,.5.2.7.7.8v.3c-.3.2-.7.3-1.2.3s-.7-.3-.7-.7.1-1.1.2-1.6l.3-1.7c0-.5.1-1.1.1-1.5,0-.7-.3-.9-.7-.9-.8,0-2,1.6-2.1,3.8v2.5h-1.4l.8-6.5h0Z"/>
    <path class="cls-2" d="M209.5,24.5c1,0,1.6.5,1.6,1.5,0,1.8-1.8,2.8-3.6,2.8,0,1.8.5,2.2,1.3,2.2s1.3-.3,1.6-.8c0,0,.2.2.2.4,0,.7-1,1.3-2.2,1.3s-2.1-.8-2.1-2.6c0-3.4,1.7-5,3.1-5M209.9,26.3c0-.7-.3-1-.7-1-.7,0-1.6,1.1-1.6,2.9,1.4,0,2.3-.7,2.3-1.9"/>
    <path class="cls-2" d="M211.4,30.5c.4.4.9.6,1.5.6s1.3-.4,1.3-1-.2-.8-.9-1.5l-.5-.5c-.7-.6-.9-1-.9-1.7,0-1,.9-2,2.3-2s1.6.3,1.6.8-.1.6-.3.8c-.4-.4-1.1-.7-1.6-.7s-1,.4-1,.8.2.7.9,1.4l.6.5c.7.6,1,1.1,1,1.7,0,1.2-1.2,2.2-2.8,2.2s-1.4-.3-1.4-.9,0-.5.2-.6"/>
    <path class="cls-2" d="M216.1,30.5c.4.4.9.6,1.5.6s1.3-.4,1.3-1-.2-.8-.9-1.5l-.5-.5c-.7-.6-.9-1-.9-1.7,0-1,.9-2,2.3-2s1.6.3,1.6.8-.1.6-.3.8c-.4-.4-1.1-.7-1.6-.7s-1,.4-1,.8.2.7.9,1.4l.6.5c.7.6,1,1.1,1,1.7,0,1.2-1.2,2.2-2.8,2.2s-1.4-.3-1.4-.9,0-.5.2-.6"/>
    <path class="cls-2" d="M223.1,31.5c.3,0,.5-.3.6-.7l.9-7.9-.8-.2v-.3c.8-.2,1.7-.2,3-.2s2.8.8,2.8,2.1-1.1,2.8-2.7,3.1l1.6,2.7c.4.7,1,1.1,1.6,1.2v.3c-.2.2-.6.3-1.1.3s-1.1-.3-1.7-1.3l-1.8-3.3v-.3c1.3,0,2.7-1,2.7-2.6s-.7-1.6-1.7-1.6-.6,0-.8,0l-1,8.2.8.2v.3c-.4,0-.8.2-1.4.2h-1.2v-.3l.2.2h0Z"/>
    <path class="cls-2" d="M233.8,24.5c1,0,1.6.5,1.6,1.5,0,1.8-1.8,2.8-3.6,2.8,0,1.8.5,2.2,1.4,2.2s1.3-.3,1.6-.8c0,0,.2.2.2.4,0,.7-1,1.3-2.2,1.3s-2.1-.8-2.1-2.6c0-3.4,1.7-5,3.1-5M234.2,26.3c0-.7-.3-1-.7-1-.7,0-1.6,1.1-1.6,2.9,1.4,0,2.3-.7,2.3-1.9"/>
    <path class="cls-2" d="M237,33.8c0,.8.1,1.1.5,1.2v.3c-.4,0-.7.2-1.2.2h-.8l.3-1.3,1.2-8.8-.9-.3v-.3c.5-.2,1-.2,1.5-.2h.6l-.4,2.3h0c.5-1.5,1.5-2.5,2.3-2.5s1.4.8,1.4,2.5c0,3.3-1.8,5-3.3,5s-.7,0-1-.3l-.2,2.1h0ZM238.2,31.2c1.1,0,2.1-1.2,2.1-3.8s-.4-1.9-.8-1.9c-.6,0-1.6,1.2-1.9,3.3l-.3,2.3h.9"/>
    <path class="cls-2" d="M245.8,24.5c1.2,0,2.1.8,2.1,2.5,0,3.2-1.7,5.1-3.2,5.1s-2.1-.9-2.1-2.7c0-3.2,1.6-4.9,3.3-4.9M246.6,27.3c0-1.3-.5-1.9-1.2-1.9s-1.8,1.4-1.8,3.5.6,2.4,1.2,2.4,1.7-1.2,1.7-3.9"/>
    <path class="cls-2" d="M249.8,25.4l-.9-.3v-.3c.5-.2.9-.3,1.5-.3h.6l-.5,2.2h0l.8-1.3c.4-.6.8-.9,1.3-.9s.5.2.5.6,0,.5-.2.8h-.5c-.9,0-1.9,1-2,3.8v2.2h-1.4l.7-6.5h0Z"/>
    <path class="cls-2" d="M253.9,26.5l.2-1h-.8v-.2c.5-.7,1.2-1.3,2-1.8h.2l-.3,1.2h1.6c0,.6-.4.9-1.3.9h-.4l-.3,1.6c-.1.7-.3,2-.3,2.6,0,1,.5,1.4,1.2,1.4s.4,0,.6,0v.3c-.1.4-.7.7-1.4.7s-1.5-.7-1.5-1.8.2-2.5.5-3.6"/>
    <path class="cls-2" d="M257.5,29.3l.5-3v-.9l-.8-.3v-.3c.5-.2,1-.3,1.5-.3h.7l-.7,4.4c0,.4-.1,1.2-.1,1.6s.2.7.6.9v.3c-.3,0-.7.2-1.1.2s-.7-.3-.7-.7.1-1.4.2-2M258.2,22.4c0-.5.4-.9.8-.9s.7.3.7.7-.4.9-.8.9-.7-.3-.7-.7"/>
    <path class="cls-2" d="M261.3,25.4l-.9-.3v-.3c.5-.2.9-.3,1.5-.3h.6l-.5,2.3h0c.7-1.5,1.7-2.4,2.7-2.4s1.2.5,1.2,1.4-.1,1.2-.2,1.9l-.3,1.6c0,.3-.1.9-.1,1.2,0,.5.2.7.7.8v.3c-.3.2-.7.3-1.2.3s-.7-.3-.7-.7.1-1.1.2-1.6l.3-1.7c0-.5.1-1.1.1-1.5,0-.7-.3-.9-.7-.9-.8,0-2,1.6-2.1,3.8v2.5h-1.4l.7-6.5h0Z"/>
    <path class="cls-2" d="M267.1,33.9c0,.6.5,1,1.3,1s2-.8,2.2-2.6l.3-2.6h0c-.6,1.4-1.5,2.4-2.3,2.4s-1.4-.9-1.4-2.7c0-2.9,1.7-4.8,3.7-4.8s1.2,0,1.7.2l-.6,2.9c-.1.7-.2,2.2-.2,3,0,3.4-1.7,4.9-3.7,4.9s-2.1-.6-2.1-1.4.7-1.3,1.5-1.3c-.3.3-.4.6-.4,1M271,27.8l.3-2.4h-.7c-1.2,0-2.2,1.2-2.2,3.8s.4,1.8.8,1.8c.6,0,1.6-1,1.9-3.2"/>
  </g>
  <path class="cls-3" d="M8.7,37.4h2.3l.2,1.5c.6,3.5,2.4,4.9,6.1,4.9s6.6-2.1,6.6-5.5-1.1-4.2-5-7.6l-4.3-3.7c-2.9-2.5-4-4.8-4-8.2,0-6.6,5.7-12,13.6-12s6.1.5,8.2,1.5l-1.1,9.1h-2.1l-.2-1.4c-.6-3.4-2.3-4.8-5.6-4.8s-6,2.4-6,5.3.8,3.7,4.1,6.1l4,3.2c4.5,3.5,5.8,6,5.8,9.5,0,7.3-6.7,12.8-14.9,12.8s-6.3-.6-8.8-1.5l.9-9.3h.2Z"/>
  <path class="cls-3" d="M37.8,45.7c1.4-.6,2.4-1.8,2.6-3.9l3.5-30.9-3.5-1.2v-1.7c4.2-.7,8.9-1,14.1-1,8.9,0,12.6,3.2,12.6,8.7s-4.3,9.8-10.3,10.7h0c5.8,0,9.7,3.4,9.7,8.4,0,7.8-6.3,13-18,13s-8-.2-10.8-.8v-1.4h0ZM50.7,43.9c4.5,0,7.9-3.3,7.9-8.1s-2.8-7.1-9.5-7.1l-1.7,14.9c1.1,0,2.3.2,3.3.2M59.2,16.7c0-3.9-2.4-5.8-5.6-5.8s-1.7,0-2.5.1l-1.5,14.1c6,0,9.7-3.2,9.7-8.5"/>
  <path class="cls-3" d="M72.7,45.8c1.3-.5,2.4-1.7,2.5-3.3l3.5-31.6-3.5-1.2v-1.7c3.6-.6,8.3-1.1,14-1.1,8.6,0,12.8,3.7,12.8,9.3s-3.6,11-9.9,12.5l6.1,10.8c1.5,2.7,4,4.7,6.6,5.7v1.2c-1.5.9-3.3,1.4-6,1.4s-6-1.7-7.9-5.7l-6.1-13v-1.4c4.4,0,9.2-3.8,9.2-10.4s-2.4-6.6-5.8-6.6-1.7,0-2.5.2l-3.7,33,3.3,1.2v1.5c-2.2.7-4.2,1.1-6.9,1.1s-4.4-.2-6.1-.7v-1.3h.4Z"/>
</svg>